<svg width="71" height="71" viewBox="0 0 71 71" fill="none" xmlns="http://www.w3.org/2000/svg">
<g id="filter_svgrepo.com">
<path id="Vector" d="M53.2493 20.7084H50.291M50.291 20.7084H47.3327M50.291 20.7084V17.75M50.291 20.7084V23.6667M36.9785 14.7917H17.7493C16.3548 14.7917 15.6575 14.7917 15.2243 15.225C14.791 15.6582 14.791 16.3555 14.791 17.75V23.5626C14.791 24.3377 14.791 24.7252 14.966 25.0522C15.1411 25.3792 15.4635 25.5942 16.1084 26.0241L25.0529 31.987C27.6323 33.7067 28.9221 34.5667 29.622 35.8749C30.3223 37.1827 30.3223 38.7329 30.3223 41.8329V56.2084L40.6764 51.0313V41.8329C40.6764 38.7329 40.6764 37.1827 41.3767 35.8749C41.7725 35.1347 42.3574 34.538 43.2579 33.8478M59.166 20.7084C59.166 25.6099 55.1927 29.5834 50.291 29.5834C45.3894 29.5834 41.416 25.6099 41.416 20.7084C41.416 15.8069 45.3894 11.8334 50.291 11.8334C55.1927 11.8334 59.166 15.8069 59.166 20.7084Z" stroke="#F3794C" stroke-width="2.5" stroke-linecap="round" stroke-linejoin="round"/>
</g>
</svg>
