<svg width="26" height="26" viewBox="0 0 26 26" fill="none" xmlns="http://www.w3.org/2000/svg">
<g id="lock_svgrepo.com">
<path id="Vector" fill-rule="evenodd" clip-rule="evenodd" d="M5.65116 9.98914V8.53488C5.65116 4.37348 9.16521 1 13.5 1C17.8348 1 21.3488 4.37348 21.3488 8.53488V9.98914C21.6126 10.0069 21.8612 10.0301 22.0951 10.0603C23.1417 10.1954 24.0229 10.4844 24.7229 11.1562C25.4228 11.8282 25.7238 12.6742 25.8645 13.6789C26 14.6467 26 15.8772 26 17.4038V17.5264C26 19.053 26 20.2835 25.8645 21.2513C25.7238 22.2561 25.4228 23.102 24.7229 23.7739C24.0229 24.4459 23.1417 24.7349 22.0951 24.87C21.087 25 19.8052 25 18.215 25H8.78504C7.19481 25 5.91305 25 4.90494 24.87C3.8583 24.7349 2.97706 24.4459 2.27715 23.7739C1.57724 23.102 1.27621 22.2561 1.13549 21.2513C0.999954 20.2835 0.999977 19.053 1 17.5264V17.4038C0.999977 15.8772 0.999954 14.6467 1.13549 13.6789C1.27621 12.6742 1.57724 11.8282 2.27715 11.1562C2.97706 10.4844 3.8583 10.1954 4.90494 10.0603C5.13881 10.0301 5.38741 10.0069 5.65116 9.98914ZM7.39535 8.53488C7.39535 5.29824 10.1285 2.67442 13.5 2.67442C16.8715 2.67442 19.6047 5.29824 19.6047 8.53488V9.93407C19.1703 9.93022 18.7074 9.93022 18.215 9.93023H8.78504C8.29257 9.93022 7.82969 9.93022 7.39535 9.93407V8.53488ZM3.51048 12.3403C3.83229 12.0313 4.28413 11.8299 5.13735 11.7197C6.01566 11.6064 7.17976 11.6047 8.84884 11.6047H18.1512C19.8202 11.6047 20.9843 11.6064 21.8627 11.7197C22.7159 11.8299 23.1677 12.0313 23.4895 12.3403C23.8114 12.6493 24.0212 13.0829 24.1359 13.9021C24.254 14.7453 24.2558 15.8628 24.2558 17.4651C24.2558 19.0674 24.254 20.1849 24.1359 21.0282C24.0212 21.8473 23.8114 22.281 23.4895 22.59C23.1677 22.8989 22.7159 23.1003 21.8627 23.2105C20.9843 23.3238 19.8202 23.3256 18.1512 23.3256H8.84884C7.17976 23.3256 6.01566 23.3238 5.13735 23.2105C4.28413 23.1003 3.83229 22.8989 3.51048 22.59C3.18866 22.281 2.97884 21.8473 2.86413 21.0282C2.74604 20.1849 2.74419 19.0674 2.74419 17.4651C2.74419 15.8628 2.74604 14.7453 2.86413 13.9021C2.97884 13.0829 3.18866 12.6493 3.51048 12.3403Z" fill="black"/>
</g>
</svg>
