<svg width="60" height="60" viewBox="0 0 60 60" fill="none" xmlns="http://www.w3.org/2000/svg">
<g id="portfolio_svgrepo.com">
<path id="Vector" d="M54 24.7679C54 22.2219 52.9886 19.7801 51.1882 17.9797C49.3879 16.1794 46.9462 15.168 44.4 15.168H15.6C13.0539 15.168 10.6123 16.1794 8.81191 17.9797C7.01158 19.7801 6 22.2219 6 24.7679" stroke="#F3794C" stroke-width="3.6" stroke-linecap="round" stroke-linejoin="round"/>
<path id="Vector_2" d="M54 24.7679C39.384 39.1679 20.616 39.1679 6 24.7679" stroke="#F3794C" stroke-width="3.6" stroke-linecap="round" stroke-linejoin="round"/>
<path id="Vector_3" d="M54.0005 24.7679L51.6005 43.9679C51.2425 46.5811 49.9669 48.9813 48.0013 50.74C46.0359 52.4987 43.5092 53.5012 40.8725 53.5679H18.9365C16.3 53.5012 13.7731 52.4987 11.8077 50.74C9.84232 48.9813 8.56663 46.5811 8.20859 43.9679L5.80859 24.7679" stroke="#F3794C" stroke-width="3.6" stroke-linecap="round" stroke-linejoin="round"/>
<path id="Vector_4" d="M20.4238 14.496C20.4238 11.9499 21.4352 9.5081 23.2356 7.70776C25.0359 5.9074 27.4777 4.896 30.0239 4.896C32.5698 4.896 35.0118 5.9074 36.8121 7.70776C38.6123 9.5081 39.6239 11.9499 39.6239 14.496" stroke="#F3794C" stroke-width="3.6" stroke-linecap="round" stroke-linejoin="round"/>
</g>
</svg>
