<svg width="872" height="240" viewBox="0 0 872 240" fill="none" xmlns="http://www.w3.org/2000/svg">
<path d="M147.75 171H116.33V69.1818H149.142C159.019 69.1818 167.471 71.2202 174.497 75.2969C181.524 79.3404 186.91 85.1572 190.655 92.7472C194.4 100.304 196.273 109.352 196.273 119.892C196.273 130.498 194.384 139.629 190.605 147.286C186.827 154.909 181.325 160.775 174.099 164.885C166.874 168.962 158.091 171 147.75 171ZM128.659 160.062H146.955C155.373 160.062 162.35 158.438 167.885 155.19C173.42 151.942 177.546 147.319 180.264 141.32C182.982 135.321 184.341 128.178 184.341 119.892C184.341 111.672 182.999 104.596 180.314 98.6633C177.629 92.6974 173.619 88.1236 168.283 84.9418C162.946 81.7268 156.301 80.1193 148.347 80.1193H128.659V160.062ZM244.581 172.591C237.223 172.591 230.876 170.967 225.539 167.719C220.236 164.438 216.143 159.864 213.26 153.997C210.409 148.098 208.984 141.237 208.984 133.415C208.984 125.593 210.409 118.699 213.26 112.733C216.143 106.734 220.154 102.061 225.291 98.7131C230.461 95.3324 236.494 93.642 243.387 93.642C247.365 93.642 251.292 94.3049 255.17 95.6307C259.048 96.9564 262.578 99.1108 265.76 102.094C268.941 105.044 271.477 108.955 273.366 113.827C275.255 118.699 276.2 124.698 276.2 131.824V136.795H217.336V126.653H264.268C264.268 122.345 263.406 118.5 261.683 115.119C259.993 111.739 257.573 109.071 254.424 107.115C251.309 105.16 247.63 104.182 243.387 104.182C238.714 104.182 234.671 105.342 231.257 107.662C227.876 109.949 225.274 112.932 223.451 116.611C221.629 120.29 220.717 124.234 220.717 128.443V135.205C220.717 140.972 221.711 145.86 223.7 149.871C225.722 153.848 228.522 156.881 232.102 158.969C235.682 161.024 239.841 162.051 244.581 162.051C247.663 162.051 250.447 161.62 252.933 160.759C255.452 159.864 257.623 158.538 259.446 156.781C261.269 154.991 262.677 152.771 263.672 150.119L275.007 153.301C273.814 157.146 271.808 160.527 268.991 163.443C266.174 166.327 262.694 168.58 258.551 170.205C254.408 171.795 249.751 172.591 244.581 172.591ZM351.367 94.6364L323.128 171H311.197L282.958 94.6364H295.685L316.765 155.489H317.56L338.64 94.6364H351.367ZM421.326 94.6364C420.73 89.5985 418.31 85.6875 414.068 82.9034C409.825 80.1193 404.622 78.7273 398.457 78.7273C393.949 78.7273 390.005 79.4564 386.625 80.9148C383.277 82.3731 380.659 84.3783 378.769 86.9304C376.913 89.4825 375.985 92.3826 375.985 95.6307C375.985 98.3485 376.632 100.685 377.924 102.641C379.25 104.563 380.94 106.17 382.995 107.463C385.05 108.723 387.205 109.767 389.458 110.595C391.712 111.391 393.784 112.037 395.673 112.534L406.014 115.318C408.665 116.014 411.615 116.975 414.863 118.202C418.144 119.428 421.276 121.102 424.259 123.223C427.276 125.311 429.761 127.996 431.717 131.277C433.672 134.558 434.65 138.585 434.65 143.358C434.65 148.86 433.208 153.831 430.325 158.273C427.474 162.714 423.298 166.244 417.796 168.862C412.328 171.481 405.682 172.79 397.86 172.79C390.569 172.79 384.255 171.613 378.919 169.26C373.616 166.907 369.439 163.625 366.39 159.416C363.374 155.207 361.667 150.318 361.269 144.75H373.997C374.328 148.595 375.621 151.777 377.875 154.295C380.161 156.781 383.045 158.637 386.525 159.864C390.038 161.057 393.817 161.653 397.86 161.653C402.567 161.653 406.793 160.891 410.538 159.366C414.283 157.809 417.25 155.654 419.437 152.903C421.625 150.119 422.718 146.871 422.718 143.159C422.718 139.778 421.774 137.027 419.884 134.906C417.995 132.785 415.509 131.062 412.427 129.736C409.345 128.41 406.014 127.25 402.434 126.256L389.906 122.676C381.951 120.389 375.654 117.125 371.014 112.882C366.374 108.64 364.053 103.088 364.053 96.2273C364.053 90.5265 365.595 85.5549 368.677 81.3125C371.793 77.0369 375.969 73.7225 381.205 71.3693C386.475 68.983 392.358 67.7898 398.855 67.7898C405.417 67.7898 411.25 68.9664 416.355 71.3196C421.459 73.6397 425.502 76.8215 428.485 80.8651C431.501 84.9086 433.092 89.499 433.258 94.6364H421.326ZM483.741 94.6364V104.58H444.167V94.6364H483.741ZM455.701 76.3409H467.434V149.125C467.434 152.439 467.915 154.925 468.876 156.582C469.87 158.206 471.13 159.3 472.654 159.864C474.212 160.394 475.853 160.659 477.576 160.659C478.869 160.659 479.929 160.593 480.758 160.46C481.587 160.295 482.25 160.162 482.747 160.062L485.133 170.602C484.338 170.901 483.227 171.199 481.802 171.497C480.377 171.829 478.571 171.994 476.383 171.994C473.069 171.994 469.821 171.282 466.639 169.857C463.49 168.431 460.872 166.26 458.784 163.344C456.729 160.427 455.701 156.748 455.701 152.307V76.3409ZM521.062 172.79C516.223 172.79 511.831 171.878 507.887 170.055C503.943 168.199 500.811 165.531 498.491 162.051C496.171 158.538 495.011 154.295 495.011 149.324C495.011 144.949 495.872 141.402 497.596 138.685C499.319 135.934 501.623 133.779 504.506 132.222C507.39 130.664 510.572 129.504 514.052 128.741C517.565 127.946 521.095 127.316 524.641 126.852C529.281 126.256 533.043 125.808 535.927 125.51C538.844 125.179 540.965 124.632 542.29 123.869C543.649 123.107 544.329 121.781 544.329 119.892V119.494C544.329 114.589 542.987 110.777 540.302 108.06C537.65 105.342 533.623 103.983 528.221 103.983C522.62 103.983 518.228 105.209 515.046 107.662C511.864 110.115 509.627 112.733 508.335 115.517L497.198 111.54C499.187 106.9 501.838 103.287 505.153 100.702C508.5 98.0833 512.146 96.2604 516.09 95.233C520.067 94.1723 523.978 93.642 527.823 93.642C530.276 93.642 533.093 93.9403 536.275 94.5369C539.49 95.1004 542.589 96.277 545.572 98.0668C548.588 99.8565 551.09 102.558 553.079 106.17C555.067 109.783 556.062 114.622 556.062 120.688V171H544.329V160.659H543.732C542.937 162.316 541.611 164.089 539.755 165.979C537.899 167.868 535.43 169.475 532.347 170.801C529.265 172.127 525.503 172.79 521.062 172.79ZM522.852 162.25C527.492 162.25 531.403 161.339 534.585 159.516C537.799 157.693 540.219 155.339 541.843 152.456C543.5 149.572 544.329 146.54 544.329 143.358V132.619C543.832 133.216 542.738 133.763 541.048 134.26C539.39 134.724 537.468 135.138 535.281 135.503C533.126 135.834 531.022 136.133 528.967 136.398C526.945 136.63 525.304 136.829 524.045 136.994C520.996 137.392 518.145 138.038 515.494 138.933C512.875 139.795 510.754 141.104 509.13 142.861C507.539 144.584 506.744 146.937 506.744 149.92C506.744 153.997 508.252 157.08 511.268 159.168C514.317 161.223 518.178 162.25 522.852 162.25ZM574.677 171V94.6364H586.012V106.17H586.808C588.2 102.392 590.719 99.3262 594.364 96.973C598.01 94.6198 602.12 93.4432 606.694 93.4432C607.556 93.4432 608.633 93.4597 609.926 93.4929C611.218 93.526 612.196 93.5758 612.859 93.642V105.574C612.461 105.474 611.55 105.325 610.124 105.126C608.732 104.894 607.257 104.778 605.7 104.778C601.988 104.778 598.673 105.557 595.756 107.115C592.873 108.64 590.586 110.761 588.896 113.479C587.238 116.163 586.41 119.229 586.41 122.676V171H574.677ZM661.962 94.6364V104.58H622.388V94.6364H661.962ZM633.922 76.3409H645.655V149.125C645.655 152.439 646.136 154.925 647.097 156.582C648.091 158.206 649.351 159.3 650.876 159.864C652.433 160.394 654.074 160.659 655.797 160.659C657.09 160.659 658.151 160.593 658.979 160.46C659.808 160.295 660.471 160.162 660.968 160.062L663.354 170.602C662.559 170.901 661.448 171.199 660.023 171.497C658.598 171.829 656.792 171.994 654.604 171.994C651.29 171.994 648.042 171.282 644.86 169.857C641.711 168.431 639.093 166.26 637.005 163.344C634.95 160.427 633.922 156.748 633.922 152.307V76.3409Z" fill="white"/>
<path d="M43.3438 89.988L85.2012 162.195L76.1621 167.355L25.2656 79.5619L76.1621 50.5403L76.8791 51.7862L85.2012 66.1266L57.0847 82.1478L43.3438 89.988Z" stroke="white" stroke-width="0.421053" stroke-linecap="round" stroke-linejoin="round"/>
<path d="M108.71 54.372L85.2012 66.1264L76.8791 51.786L76.1621 50.5401L99.6709 38.7856L108.71 54.372Z" stroke="white" stroke-width="0.421053" stroke-linecap="round" stroke-linejoin="round"/>
<path d="M108.71 54.3721L66.8525 78.2335L57.5195 82.9L43.3438 89.9879L57.0846 82.1477L85.2011 66.1265L108.71 54.3721Z" stroke="white" stroke-width="0.421053" stroke-linecap="round" stroke-linejoin="round"/>
<path d="M108.71 150.441L99.6709 155.601L76.1621 167.355L85.2012 162.195L99.3888 155.107L108.71 150.441Z" stroke="white" stroke-width="0.421053" stroke-linecap="round" stroke-linejoin="round"/>
<path d="M108.71 150.441L99.3887 155.107L85.2011 162.195L43.3438 89.9878L57.5195 82.8999L66.8525 78.2334L108.71 150.441Z" stroke="white" stroke-width="0.421053" stroke-linecap="round" stroke-linejoin="round"/>
<path d="M786.54 183.558L736.203 212.253L695.382 235.537L674.098 198.842L743.992 158.989L674.098 38.442L695.382 26.3157L766.561 149.074L786.54 183.558Z" stroke="white" stroke-width="0.421053" stroke-linecap="round" stroke-linejoin="round"/>
<path d="M828.645 162.505L786.54 183.558L766.561 149.074L695.382 26.3158L737.487 5.26318L828.645 162.505Z" stroke="white" stroke-width="0.421053" stroke-linecap="round" stroke-linejoin="round"/>
<path d="M828.645 162.505L737.487 214.484L695.382 235.537L736.203 212.253L786.54 183.558L828.645 162.505Z" stroke="white" stroke-width="0.421053" stroke-linecap="round" stroke-linejoin="round"/>
</svg>
